<mxfile host="app.diagrams.net" modified="2024-01-30T09:14:29.364Z" agent="Mozilla/5.0 (X11; Linux x86_64) AppleWebKit/537.36 (KHTML, like Gecko) Chrome/120.0.0.0 Safari/537.36" etag="iPLaTorParB1Z0e_mRH8" version="23.0.2" type="github">
  <diagram id="HF3EYHtyEsSgDk29EQUM" name="Страница 1">
    <mxGraphModel dx="1434" dy="820" grid="0" gridSize="10" guides="1" tooltips="1" connect="1" arrows="1" fold="1" page="1" pageScale="1" pageWidth="1169" pageHeight="827" math="0" shadow="0">
      <root>
        <mxCell id="0" />
        <mxCell id="1" parent="0" />
        <mxCell id="90lqPr3b5wlRCQ1Bb15_-1" value="&lt;p style=&quot;line-height: 100%; margin-bottom: 0cm; font-size: 13px;&quot;&gt;&lt;font style=&quot;font-size: 13px;&quot;&gt;&lt;font color=&quot;#000000&quot; style=&quot;font-size: 13px;&quot;&gt;&lt;font face=&quot;DejaVu Sans Condensed, sans-serif&quot; style=&quot;font-size: 13px;&quot;&gt;&lt;b style=&quot;font-size: 13px;&quot;&gt;Кон&lt;/b&gt;&lt;/font&gt;&lt;/font&gt;&lt;font color=&quot;#000000&quot; style=&quot;font-size: 13px;&quot;&gt;&lt;font face=&quot;DejaVu Sans Condensed, sans-serif&quot; style=&quot;font-size: 13px;&quot;&gt;&lt;b style=&quot;font-size: 13px;&quot;&gt;т&lt;/b&gt;&lt;/font&gt;&lt;/font&gt;&lt;font color=&quot;#000000&quot; style=&quot;font-size: 13px;&quot;&gt;&lt;font face=&quot;DejaVu Sans Condensed, sans-serif&quot; style=&quot;font-size: 13px;&quot;&gt;&lt;b style=&quot;font-size: 13px;&quot;&gt;роль USB-портов (USBGuard)&lt;/b&gt;&lt;/font&gt;&lt;/font&gt;&lt;/font&gt;&lt;br style=&quot;font-size: 13px;&quot;&gt;&lt;/p&gt;" style="text;whiteSpace=wrap;html=1;fontSize=13;" parent="1" vertex="1">
          <mxGeometry x="10" width="450" height="50" as="geometry" />
        </mxCell>
        <mxCell id="3SDEc3MKjUo-QjRz-hxS-2" value="" style="group;fontSize=13;" parent="1" vertex="1" connectable="0">
          <mxGeometry x="10" y="40" width="410" height="30" as="geometry" />
        </mxCell>
        <mxCell id="j7Y8htLGbgiCzbjYnlhf-1" value="&lt;font style=&quot;font-size: 13px;&quot;&gt;Использовать контроль USB портов&lt;/font&gt;" style="text;html=1;align=left;verticalAlign=top;resizable=0;points=[];autosize=1;strokeColor=none;fillColor=none;spacing=2;fontSize=13;" parent="3SDEc3MKjUo-QjRz-hxS-2" vertex="1">
          <mxGeometry x="30" width="250" height="30" as="geometry" />
        </mxCell>
        <mxCell id="3SDEc3MKjUo-QjRz-hxS-1" value="" style="rounded=1;whiteSpace=wrap;html=1;shadow=0;labelBackgroundColor=none;strokeWidth=1;fontFamily=Verdana;fontSize=13;align=center;" parent="3SDEc3MKjUo-QjRz-hxS-2" vertex="1">
          <mxGeometry y="5" width="20" height="20" as="geometry" />
        </mxCell>
        <mxCell id="j7Y8htLGbgiCzbjYnlhf-2" value="" style="endArrow=none;html=1;rounded=0;fontSize=13;" parent="3SDEc3MKjUo-QjRz-hxS-2" edge="1">
          <mxGeometry width="50" height="50" relative="1" as="geometry">
            <mxPoint y="40" as="sourcePoint" />
            <mxPoint x="790" y="40" as="targetPoint" />
          </mxGeometry>
        </mxCell>
        <mxCell id="3SDEc3MKjUo-QjRz-hxS-3" value="" style="group;fontSize=13;" parent="1" vertex="1" connectable="0">
          <mxGeometry x="10" y="290" width="570" height="50" as="geometry" />
        </mxCell>
        <mxCell id="3SDEc3MKjUo-QjRz-hxS-4" value="Блокировать всё, кроме подключённых устройств" style="text;html=1;align=left;verticalAlign=top;resizable=0;points=[];autosize=1;strokeColor=none;fillColor=none;spacing=2;" parent="3SDEc3MKjUo-QjRz-hxS-3" vertex="1">
          <mxGeometry x="30" width="380" height="30" as="geometry" />
        </mxCell>
        <mxCell id="3SDEc3MKjUo-QjRz-hxS-6" value="" style="ellipse;whiteSpace=wrap;html=1;aspect=fixed;fontSize=13;" parent="3SDEc3MKjUo-QjRz-hxS-3" vertex="1">
          <mxGeometry y="7.5" width="15" height="15" as="geometry" />
        </mxCell>
        <mxCell id="3SDEc3MKjUo-QjRz-hxS-68" value="" style="group;fontSize=13;" parent="3SDEc3MKjUo-QjRz-hxS-3" vertex="1" connectable="0">
          <mxGeometry y="20" width="570" height="30" as="geometry" />
        </mxCell>
        <mxCell id="3SDEc3MKjUo-QjRz-hxS-69" value="Блокировать всё, кроме подключённых устройств и HID/HUB устройств" style="text;html=1;align=left;verticalAlign=middle;resizable=0;points=[];autosize=1;strokeColor=none;fillColor=none;spacing=2;labelPosition=center;verticalLabelPosition=middle;" parent="3SDEc3MKjUo-QjRz-hxS-68" vertex="1">
          <mxGeometry x="30" width="540" height="30" as="geometry" />
        </mxCell>
        <mxCell id="3SDEc3MKjUo-QjRz-hxS-70" value="" style="ellipse;whiteSpace=wrap;html=1;aspect=fixed;fontSize=13;" parent="3SDEc3MKjUo-QjRz-hxS-68" vertex="1">
          <mxGeometry y="7.5" width="15" height="15" as="geometry" />
        </mxCell>
        <mxCell id="3SDEc3MKjUo-QjRz-hxS-8" value="Сохранить настройки" style="rounded=1;whiteSpace=wrap;html=1;fillColor=#dae8fc;strokeColor=#6c8ebf;fontSize=13;" parent="1" vertex="1">
          <mxGeometry x="600" y="42.5" width="200" height="25" as="geometry" />
        </mxCell>
        <mxCell id="3SDEc3MKjUo-QjRz-hxS-13" value="Список подключенных устройств" style="shape=table;startSize=30;container=1;collapsible=0;childLayout=tableLayout;strokeColor=#6c8ebf;fontSize=13;fillColor=#dae8fc;" parent="1" vertex="1">
          <mxGeometry x="10" y="110" width="790" height="90" as="geometry" />
        </mxCell>
        <mxCell id="3SDEc3MKjUo-QjRz-hxS-14" value="" style="shape=tableRow;horizontal=0;startSize=0;swimlaneHead=0;swimlaneBody=0;strokeColor=inherit;top=0;left=0;bottom=0;right=0;collapsible=0;dropTarget=0;fillColor=none;points=[[0,0.5],[1,0.5]];portConstraint=eastwest;fontSize=13;" parent="3SDEc3MKjUo-QjRz-hxS-13" vertex="1">
          <mxGeometry y="30" width="790" height="20" as="geometry" />
        </mxCell>
        <mxCell id="3SDEc3MKjUo-QjRz-hxS-142" value="№" style="shape=partialRectangle;html=1;whiteSpace=wrap;connectable=0;strokeColor=inherit;overflow=hidden;fillColor=none;top=0;left=0;bottom=0;right=0;pointerEvents=1;fontSize=13;" parent="3SDEc3MKjUo-QjRz-hxS-14" vertex="1">
          <mxGeometry width="31" height="20" as="geometry">
            <mxRectangle width="31" height="20" as="alternateBounds" />
          </mxGeometry>
        </mxCell>
        <mxCell id="3SDEc3MKjUo-QjRz-hxS-157" value="Port" style="shape=partialRectangle;html=1;whiteSpace=wrap;connectable=0;strokeColor=inherit;overflow=hidden;fillColor=none;top=0;left=0;bottom=0;right=0;pointerEvents=1;fontSize=13;" parent="3SDEc3MKjUo-QjRz-hxS-14" vertex="1">
          <mxGeometry x="31" width="119" height="20" as="geometry">
            <mxRectangle width="119" height="20" as="alternateBounds" />
          </mxGeometry>
        </mxCell>
        <mxCell id="3SDEc3MKjUo-QjRz-hxS-15" value="CC:SS:PP&amp;nbsp;↓" style="shape=partialRectangle;html=1;whiteSpace=wrap;connectable=0;strokeColor=inherit;overflow=hidden;fillColor=none;top=0;left=0;bottom=0;right=0;pointerEvents=1;fontSize=13;" parent="3SDEc3MKjUo-QjRz-hxS-14" vertex="1">
          <mxGeometry x="150" width="118" height="20" as="geometry">
            <mxRectangle width="118" height="20" as="alternateBounds" />
          </mxGeometry>
        </mxCell>
        <mxCell id="3SDEc3MKjUo-QjRz-hxS-16" value="VID" style="shape=partialRectangle;html=1;whiteSpace=wrap;connectable=0;strokeColor=inherit;overflow=hidden;fillColor=none;top=0;left=0;bottom=0;right=0;pointerEvents=1;fontSize=13;" parent="3SDEc3MKjUo-QjRz-hxS-14" vertex="1">
          <mxGeometry x="268" width="75" height="20" as="geometry">
            <mxRectangle width="75" height="20" as="alternateBounds" />
          </mxGeometry>
        </mxCell>
        <mxCell id="3SDEc3MKjUo-QjRz-hxS-38" value="Vendor" style="shape=partialRectangle;html=1;whiteSpace=wrap;connectable=0;strokeColor=inherit;overflow=hidden;fillColor=none;top=0;left=0;bottom=0;right=0;pointerEvents=1;fontSize=13;" parent="3SDEc3MKjUo-QjRz-hxS-14" vertex="1">
          <mxGeometry x="343" width="73" height="20" as="geometry">
            <mxRectangle width="73" height="20" as="alternateBounds" />
          </mxGeometry>
        </mxCell>
        <mxCell id="3SDEc3MKjUo-QjRz-hxS-17" value="PID" style="shape=partialRectangle;html=1;whiteSpace=wrap;connectable=0;strokeColor=inherit;overflow=hidden;fillColor=none;top=0;left=0;bottom=0;right=0;pointerEvents=1;fontSize=13;" parent="3SDEc3MKjUo-QjRz-hxS-14" vertex="1">
          <mxGeometry x="416" width="76" height="20" as="geometry">
            <mxRectangle width="76" height="20" as="alternateBounds" />
          </mxGeometry>
        </mxCell>
        <mxCell id="3SDEc3MKjUo-QjRz-hxS-35" value="Product" style="shape=partialRectangle;html=1;whiteSpace=wrap;connectable=0;strokeColor=inherit;overflow=hidden;fillColor=none;top=0;left=0;bottom=0;right=0;pointerEvents=1;fontSize=13;" parent="3SDEc3MKjUo-QjRz-hxS-14" vertex="1">
          <mxGeometry x="492" width="75" height="20" as="geometry">
            <mxRectangle width="75" height="20" as="alternateBounds" />
          </mxGeometry>
        </mxCell>
        <mxCell id="3SDEc3MKjUo-QjRz-hxS-26" value="SN" style="shape=partialRectangle;html=1;whiteSpace=wrap;connectable=0;strokeColor=inherit;overflow=hidden;fillColor=none;top=0;left=0;bottom=0;right=0;pointerEvents=1;fontSize=13;" parent="3SDEc3MKjUo-QjRz-hxS-14" vertex="1">
          <mxGeometry x="567" width="74" height="20" as="geometry">
            <mxRectangle width="74" height="20" as="alternateBounds" />
          </mxGeometry>
        </mxCell>
        <mxCell id="3SDEc3MKjUo-QjRz-hxS-29" value="Hash" style="shape=partialRectangle;html=1;whiteSpace=wrap;connectable=0;strokeColor=inherit;overflow=hidden;fillColor=none;top=0;left=0;bottom=0;right=0;pointerEvents=1;fontSize=13;" parent="3SDEc3MKjUo-QjRz-hxS-14" vertex="1">
          <mxGeometry x="641" width="74" height="20" as="geometry">
            <mxRectangle width="74" height="20" as="alternateBounds" />
          </mxGeometry>
        </mxCell>
        <mxCell id="3SDEc3MKjUo-QjRz-hxS-32" value="Status" style="shape=partialRectangle;html=1;whiteSpace=wrap;connectable=0;strokeColor=inherit;overflow=hidden;fillColor=none;top=0;left=0;bottom=0;right=0;pointerEvents=1;fontSize=13;" parent="3SDEc3MKjUo-QjRz-hxS-14" vertex="1">
          <mxGeometry x="715" width="75" height="20" as="geometry">
            <mxRectangle width="75" height="20" as="alternateBounds" />
          </mxGeometry>
        </mxCell>
        <mxCell id="3SDEc3MKjUo-QjRz-hxS-18" value="" style="shape=tableRow;horizontal=0;startSize=0;swimlaneHead=0;swimlaneBody=0;strokeColor=inherit;top=0;left=0;bottom=0;right=0;collapsible=0;dropTarget=0;fillColor=none;points=[[0,0.5],[1,0.5]];portConstraint=eastwest;fontSize=13;" parent="3SDEc3MKjUo-QjRz-hxS-13" vertex="1">
          <mxGeometry y="50" width="790" height="20" as="geometry" />
        </mxCell>
        <mxCell id="3SDEc3MKjUo-QjRz-hxS-143" style="shape=partialRectangle;html=1;whiteSpace=wrap;connectable=0;strokeColor=inherit;overflow=hidden;fillColor=none;top=0;left=0;bottom=0;right=0;pointerEvents=1;fontSize=13;" parent="3SDEc3MKjUo-QjRz-hxS-18" vertex="1">
          <mxGeometry width="31" height="20" as="geometry">
            <mxRectangle width="31" height="20" as="alternateBounds" />
          </mxGeometry>
        </mxCell>
        <mxCell id="3SDEc3MKjUo-QjRz-hxS-158" style="shape=partialRectangle;html=1;whiteSpace=wrap;connectable=0;strokeColor=inherit;overflow=hidden;fillColor=none;top=0;left=0;bottom=0;right=0;pointerEvents=1;fontSize=13;" parent="3SDEc3MKjUo-QjRz-hxS-18" vertex="1">
          <mxGeometry x="31" width="119" height="20" as="geometry">
            <mxRectangle width="119" height="20" as="alternateBounds" />
          </mxGeometry>
        </mxCell>
        <mxCell id="3SDEc3MKjUo-QjRz-hxS-19" value="" style="shape=partialRectangle;html=1;whiteSpace=wrap;connectable=0;strokeColor=inherit;overflow=hidden;fillColor=none;top=0;left=0;bottom=0;right=0;pointerEvents=1;fontSize=13;" parent="3SDEc3MKjUo-QjRz-hxS-18" vertex="1">
          <mxGeometry x="150" width="118" height="20" as="geometry">
            <mxRectangle width="118" height="20" as="alternateBounds" />
          </mxGeometry>
        </mxCell>
        <mxCell id="3SDEc3MKjUo-QjRz-hxS-20" value="" style="shape=partialRectangle;html=1;whiteSpace=wrap;connectable=0;strokeColor=inherit;overflow=hidden;fillColor=none;top=0;left=0;bottom=0;right=0;pointerEvents=1;fontSize=13;" parent="3SDEc3MKjUo-QjRz-hxS-18" vertex="1">
          <mxGeometry x="268" width="75" height="20" as="geometry">
            <mxRectangle width="75" height="20" as="alternateBounds" />
          </mxGeometry>
        </mxCell>
        <mxCell id="3SDEc3MKjUo-QjRz-hxS-39" style="shape=partialRectangle;html=1;whiteSpace=wrap;connectable=0;strokeColor=inherit;overflow=hidden;fillColor=none;top=0;left=0;bottom=0;right=0;pointerEvents=1;fontSize=13;" parent="3SDEc3MKjUo-QjRz-hxS-18" vertex="1">
          <mxGeometry x="343" width="73" height="20" as="geometry">
            <mxRectangle width="73" height="20" as="alternateBounds" />
          </mxGeometry>
        </mxCell>
        <mxCell id="3SDEc3MKjUo-QjRz-hxS-21" value="" style="shape=partialRectangle;html=1;whiteSpace=wrap;connectable=0;strokeColor=inherit;overflow=hidden;fillColor=none;top=0;left=0;bottom=0;right=0;pointerEvents=1;fontSize=13;" parent="3SDEc3MKjUo-QjRz-hxS-18" vertex="1">
          <mxGeometry x="416" width="76" height="20" as="geometry">
            <mxRectangle width="76" height="20" as="alternateBounds" />
          </mxGeometry>
        </mxCell>
        <mxCell id="3SDEc3MKjUo-QjRz-hxS-36" style="shape=partialRectangle;html=1;whiteSpace=wrap;connectable=0;strokeColor=inherit;overflow=hidden;fillColor=none;top=0;left=0;bottom=0;right=0;pointerEvents=1;fontSize=13;" parent="3SDEc3MKjUo-QjRz-hxS-18" vertex="1">
          <mxGeometry x="492" width="75" height="20" as="geometry">
            <mxRectangle width="75" height="20" as="alternateBounds" />
          </mxGeometry>
        </mxCell>
        <mxCell id="3SDEc3MKjUo-QjRz-hxS-27" style="shape=partialRectangle;html=1;whiteSpace=wrap;connectable=0;strokeColor=inherit;overflow=hidden;fillColor=none;top=0;left=0;bottom=0;right=0;pointerEvents=1;fontSize=13;" parent="3SDEc3MKjUo-QjRz-hxS-18" vertex="1">
          <mxGeometry x="567" width="74" height="20" as="geometry">
            <mxRectangle width="74" height="20" as="alternateBounds" />
          </mxGeometry>
        </mxCell>
        <mxCell id="3SDEc3MKjUo-QjRz-hxS-30" style="shape=partialRectangle;html=1;whiteSpace=wrap;connectable=0;strokeColor=inherit;overflow=hidden;fillColor=none;top=0;left=0;bottom=0;right=0;pointerEvents=1;fontSize=13;" parent="3SDEc3MKjUo-QjRz-hxS-18" vertex="1">
          <mxGeometry x="641" width="74" height="20" as="geometry">
            <mxRectangle width="74" height="20" as="alternateBounds" />
          </mxGeometry>
        </mxCell>
        <mxCell id="3SDEc3MKjUo-QjRz-hxS-33" style="shape=partialRectangle;html=1;whiteSpace=wrap;connectable=0;strokeColor=inherit;overflow=hidden;fillColor=none;top=0;left=0;bottom=0;right=0;pointerEvents=1;fontSize=13;" parent="3SDEc3MKjUo-QjRz-hxS-18" vertex="1">
          <mxGeometry x="715" width="75" height="20" as="geometry">
            <mxRectangle width="75" height="20" as="alternateBounds" />
          </mxGeometry>
        </mxCell>
        <mxCell id="3SDEc3MKjUo-QjRz-hxS-22" value="" style="shape=tableRow;horizontal=0;startSize=0;swimlaneHead=0;swimlaneBody=0;strokeColor=inherit;top=0;left=0;bottom=0;right=0;collapsible=0;dropTarget=0;fillColor=none;points=[[0,0.5],[1,0.5]];portConstraint=eastwest;fontSize=13;" parent="3SDEc3MKjUo-QjRz-hxS-13" vertex="1">
          <mxGeometry y="70" width="790" height="20" as="geometry" />
        </mxCell>
        <mxCell id="3SDEc3MKjUo-QjRz-hxS-144" style="shape=partialRectangle;html=1;whiteSpace=wrap;connectable=0;strokeColor=inherit;overflow=hidden;fillColor=none;top=0;left=0;bottom=0;right=0;pointerEvents=1;fontSize=13;" parent="3SDEc3MKjUo-QjRz-hxS-22" vertex="1">
          <mxGeometry width="31" height="20" as="geometry">
            <mxRectangle width="31" height="20" as="alternateBounds" />
          </mxGeometry>
        </mxCell>
        <mxCell id="3SDEc3MKjUo-QjRz-hxS-159" style="shape=partialRectangle;html=1;whiteSpace=wrap;connectable=0;strokeColor=inherit;overflow=hidden;fillColor=none;top=0;left=0;bottom=0;right=0;pointerEvents=1;fontSize=13;" parent="3SDEc3MKjUo-QjRz-hxS-22" vertex="1">
          <mxGeometry x="31" width="119" height="20" as="geometry">
            <mxRectangle width="119" height="20" as="alternateBounds" />
          </mxGeometry>
        </mxCell>
        <mxCell id="3SDEc3MKjUo-QjRz-hxS-23" value="" style="shape=partialRectangle;html=1;whiteSpace=wrap;connectable=0;strokeColor=inherit;overflow=hidden;fillColor=none;top=0;left=0;bottom=0;right=0;pointerEvents=1;fontSize=13;" parent="3SDEc3MKjUo-QjRz-hxS-22" vertex="1">
          <mxGeometry x="150" width="118" height="20" as="geometry">
            <mxRectangle width="118" height="20" as="alternateBounds" />
          </mxGeometry>
        </mxCell>
        <mxCell id="3SDEc3MKjUo-QjRz-hxS-24" value="" style="shape=partialRectangle;html=1;whiteSpace=wrap;connectable=0;strokeColor=inherit;overflow=hidden;fillColor=none;top=0;left=0;bottom=0;right=0;pointerEvents=1;fontSize=13;" parent="3SDEc3MKjUo-QjRz-hxS-22" vertex="1">
          <mxGeometry x="268" width="75" height="20" as="geometry">
            <mxRectangle width="75" height="20" as="alternateBounds" />
          </mxGeometry>
        </mxCell>
        <mxCell id="3SDEc3MKjUo-QjRz-hxS-40" style="shape=partialRectangle;html=1;whiteSpace=wrap;connectable=0;strokeColor=inherit;overflow=hidden;fillColor=none;top=0;left=0;bottom=0;right=0;pointerEvents=1;fontSize=13;" parent="3SDEc3MKjUo-QjRz-hxS-22" vertex="1">
          <mxGeometry x="343" width="73" height="20" as="geometry">
            <mxRectangle width="73" height="20" as="alternateBounds" />
          </mxGeometry>
        </mxCell>
        <mxCell id="3SDEc3MKjUo-QjRz-hxS-25" value="" style="shape=partialRectangle;html=1;whiteSpace=wrap;connectable=0;strokeColor=inherit;overflow=hidden;fillColor=none;top=0;left=0;bottom=0;right=0;pointerEvents=1;fontSize=13;" parent="3SDEc3MKjUo-QjRz-hxS-22" vertex="1">
          <mxGeometry x="416" width="76" height="20" as="geometry">
            <mxRectangle width="76" height="20" as="alternateBounds" />
          </mxGeometry>
        </mxCell>
        <mxCell id="3SDEc3MKjUo-QjRz-hxS-37" style="shape=partialRectangle;html=1;whiteSpace=wrap;connectable=0;strokeColor=inherit;overflow=hidden;fillColor=none;top=0;left=0;bottom=0;right=0;pointerEvents=1;fontSize=13;" parent="3SDEc3MKjUo-QjRz-hxS-22" vertex="1">
          <mxGeometry x="492" width="75" height="20" as="geometry">
            <mxRectangle width="75" height="20" as="alternateBounds" />
          </mxGeometry>
        </mxCell>
        <mxCell id="3SDEc3MKjUo-QjRz-hxS-28" style="shape=partialRectangle;html=1;whiteSpace=wrap;connectable=0;strokeColor=inherit;overflow=hidden;fillColor=none;top=0;left=0;bottom=0;right=0;pointerEvents=1;fontSize=13;" parent="3SDEc3MKjUo-QjRz-hxS-22" vertex="1">
          <mxGeometry x="567" width="74" height="20" as="geometry">
            <mxRectangle width="74" height="20" as="alternateBounds" />
          </mxGeometry>
        </mxCell>
        <mxCell id="3SDEc3MKjUo-QjRz-hxS-31" style="shape=partialRectangle;html=1;whiteSpace=wrap;connectable=0;strokeColor=inherit;overflow=hidden;fillColor=none;top=0;left=0;bottom=0;right=0;pointerEvents=1;fontSize=13;" parent="3SDEc3MKjUo-QjRz-hxS-22" vertex="1">
          <mxGeometry x="641" width="74" height="20" as="geometry">
            <mxRectangle width="74" height="20" as="alternateBounds" />
          </mxGeometry>
        </mxCell>
        <mxCell id="3SDEc3MKjUo-QjRz-hxS-34" style="shape=partialRectangle;html=1;whiteSpace=wrap;connectable=0;strokeColor=inherit;overflow=hidden;fillColor=none;top=0;left=0;bottom=0;right=0;pointerEvents=1;fontSize=13;" parent="3SDEc3MKjUo-QjRz-hxS-22" vertex="1">
          <mxGeometry x="715" width="75" height="20" as="geometry">
            <mxRectangle width="75" height="20" as="alternateBounds" />
          </mxGeometry>
        </mxCell>
        <mxCell id="3SDEc3MKjUo-QjRz-hxS-41" value="В исключения" style="rounded=1;whiteSpace=wrap;html=1;fillColor=#dae8fc;strokeColor=#6c8ebf;fontSize=13;" parent="1" vertex="1">
          <mxGeometry x="670" y="212.5" width="130" height="25" as="geometry" />
        </mxCell>
        <mxCell id="3SDEc3MKjUo-QjRz-hxS-42" value="Сканировать" style="rounded=1;whiteSpace=wrap;html=1;fillColor=#dae8fc;strokeColor=#6c8ebf;fontSize=13;" parent="1" vertex="1">
          <mxGeometry x="530" y="212.5" width="130" height="25" as="geometry" />
        </mxCell>
        <mxCell id="3SDEc3MKjUo-QjRz-hxS-43" value="Возможен ли выбор конкретной строки? Или просто все?" style="text;html=1;align=center;verticalAlign=middle;resizable=0;points=[];autosize=1;strokeColor=none;fillColor=none;" parent="1" vertex="1">
          <mxGeometry x="810" y="212.5" width="350" height="30" as="geometry" />
        </mxCell>
        <mxCell id="3SDEc3MKjUo-QjRz-hxS-44" value="Включить&amp;nbsp; - запустить с пресетом - разрешить все подключённые" style="text;html=1;align=center;verticalAlign=middle;resizable=0;points=[];autosize=1;strokeColor=none;fillColor=none;" parent="1" vertex="1">
          <mxGeometry x="800" y="30" width="390" height="30" as="geometry" />
        </mxCell>
        <mxCell id="3SDEc3MKjUo-QjRz-hxS-46" value="&lt;font face=&quot;monospace&quot;&gt;Наборы правил:&lt;/font&gt;" style="text;html=1;align=left;verticalAlign=top;resizable=0;points=[];autosize=1;strokeColor=none;fillColor=none;spacing=2;fontSize=13;" parent="1" vertex="1">
          <mxGeometry x="10" y="399" width="140" height="30" as="geometry" />
        </mxCell>
        <mxCell id="3SDEc3MKjUo-QjRz-hxS-47" value="Выключить - убрать правила, остановить сервис" style="text;html=1;align=center;verticalAlign=middle;resizable=0;points=[];autosize=1;strokeColor=none;fillColor=none;" parent="1" vertex="1">
          <mxGeometry x="800" y="50" width="300" height="30" as="geometry" />
        </mxCell>
        <mxCell id="3SDEc3MKjUo-QjRz-hxS-48" value="&lt;font face=&quot;monospace&quot;&gt;Журналирование&lt;/font&gt;" style="text;html=1;align=left;verticalAlign=top;resizable=0;points=[];autosize=1;strokeColor=none;fillColor=none;spacing=2;fontSize=13;" parent="1" vertex="1">
          <mxGeometry x="10" y="1000" width="140" height="30" as="geometry" />
        </mxCell>
        <mxCell id="3SDEc3MKjUo-QjRz-hxS-49" value="&lt;font face=&quot;monospace&quot;&gt;Монтирование по UID/GID&lt;/font&gt;" style="text;html=1;align=left;verticalAlign=top;resizable=0;points=[];autosize=1;strokeColor=none;fillColor=none;spacing=2;fontSize=13;" parent="1" vertex="1">
          <mxGeometry x="10" y="800" width="210" height="30" as="geometry" />
        </mxCell>
        <mxCell id="3SDEc3MKjUo-QjRz-hxS-50" value="" style="endArrow=none;html=1;rounded=0;fontSize=13;" parent="1" edge="1">
          <mxGeometry width="50" height="50" relative="1" as="geometry">
            <mxPoint x="10" y="1000" as="sourcePoint" />
            <mxPoint x="800" y="1000" as="targetPoint" />
          </mxGeometry>
        </mxCell>
        <mxCell id="3SDEc3MKjUo-QjRz-hxS-51" value="" style="endArrow=none;html=1;rounded=0;fontSize=13;" parent="1" edge="1">
          <mxGeometry width="50" height="50" relative="1" as="geometry">
            <mxPoint x="10" y="800" as="sourcePoint" />
            <mxPoint x="800" y="800" as="targetPoint" />
          </mxGeometry>
        </mxCell>
        <mxCell id="3SDEc3MKjUo-QjRz-hxS-53" value="Подключенные USB устройства" style="text;html=1;align=left;verticalAlign=top;resizable=0;points=[];autosize=1;strokeColor=none;fillColor=none;spacing=2;fontSize=13;" parent="1" vertex="1">
          <mxGeometry x="10" y="80" width="220" height="30" as="geometry" />
        </mxCell>
        <mxCell id="3SDEc3MKjUo-QjRz-hxS-67" value="&lt;font face=&quot;monospace&quot;&gt;Предустановки:&lt;/font&gt;" style="text;html=1;align=left;verticalAlign=top;resizable=0;points=[];autosize=1;strokeColor=none;fillColor=none;spacing=2;fontSize=13;" parent="1" vertex="1">
          <mxGeometry x="10" y="260" width="140" height="30" as="geometry" />
        </mxCell>
        <mxCell id="3SDEc3MKjUo-QjRz-hxS-74" value="" style="group;fontSize=13;" parent="1" vertex="1" connectable="0">
          <mxGeometry x="10" y="330" width="410" height="30" as="geometry" />
        </mxCell>
        <mxCell id="3SDEc3MKjUo-QjRz-hxS-75" value="Блокировать только USB Mass Storage, MTP/PTP" style="text;html=1;align=left;verticalAlign=top;resizable=0;points=[];autosize=1;strokeColor=none;fillColor=none;spacing=2;" parent="3SDEc3MKjUo-QjRz-hxS-74" vertex="1">
          <mxGeometry x="30" width="380" height="30" as="geometry" />
        </mxCell>
        <mxCell id="3SDEc3MKjUo-QjRz-hxS-76" value="" style="ellipse;whiteSpace=wrap;html=1;aspect=fixed;fontSize=13;" parent="3SDEc3MKjUo-QjRz-hxS-74" vertex="1">
          <mxGeometry y="7.5" width="15" height="15" as="geometry" />
        </mxCell>
        <mxCell id="3SDEc3MKjUo-QjRz-hxS-71" value="" style="group;" parent="1" vertex="1" connectable="0">
          <mxGeometry x="10" y="350" width="410" height="30" as="geometry" />
        </mxCell>
        <mxCell id="3SDEc3MKjUo-QjRz-hxS-72" value="Блокировать и удалять только Android устройства" style="text;html=1;align=left;verticalAlign=top;resizable=0;points=[];autosize=1;strokeColor=none;fillColor=none;spacing=2;" parent="3SDEc3MKjUo-QjRz-hxS-71" vertex="1">
          <mxGeometry x="30" width="340" height="30" as="geometry" />
        </mxCell>
        <mxCell id="3SDEc3MKjUo-QjRz-hxS-73" value="" style="ellipse;whiteSpace=wrap;html=1;aspect=fixed;fontSize=13;" parent="3SDEc3MKjUo-QjRz-hxS-71" vertex="1">
          <mxGeometry y="7.5" width="15" height="15" as="geometry" />
        </mxCell>
        <mxCell id="3SDEc3MKjUo-QjRz-hxS-77" value="" style="group;fontSize=13;" parent="1" vertex="1" connectable="0">
          <mxGeometry x="10" y="370" width="570" height="30" as="geometry" />
        </mxCell>
        <mxCell id="3SDEc3MKjUo-QjRz-hxS-78" value="Свой режим" style="text;html=1;align=left;verticalAlign=middle;resizable=0;points=[];autosize=1;strokeColor=none;fillColor=none;spacing=2;labelPosition=center;verticalLabelPosition=middle;" parent="3SDEc3MKjUo-QjRz-hxS-77" vertex="1">
          <mxGeometry x="30" width="90" height="30" as="geometry" />
        </mxCell>
        <mxCell id="3SDEc3MKjUo-QjRz-hxS-79" value="" style="ellipse;whiteSpace=wrap;html=1;aspect=fixed;fontSize=13;" parent="3SDEc3MKjUo-QjRz-hxS-77" vertex="1">
          <mxGeometry y="7.5" width="15" height="15" as="geometry" />
        </mxCell>
        <mxCell id="3SDEc3MKjUo-QjRz-hxS-80" value="Маски сс:ss:pp" style="shape=table;startSize=30;container=1;collapsible=0;childLayout=tableLayout;strokeColor=#6c8ebf;fontSize=13;fillColor=#dae8fc;" parent="1" vertex="1">
          <mxGeometry x="10" y="470" width="790" height="90" as="geometry" />
        </mxCell>
        <mxCell id="3SDEc3MKjUo-QjRz-hxS-81" value="" style="shape=tableRow;horizontal=0;startSize=0;swimlaneHead=0;swimlaneBody=0;strokeColor=inherit;top=0;left=0;bottom=0;right=0;collapsible=0;dropTarget=0;fillColor=none;points=[[0,0.5],[1,0.5]];portConstraint=eastwest;fontSize=13;" parent="3SDEc3MKjUo-QjRz-hxS-80" vertex="1">
          <mxGeometry y="30" width="790" height="20" as="geometry" />
        </mxCell>
        <mxCell id="3SDEc3MKjUo-QjRz-hxS-145" value="№" style="shape=partialRectangle;html=1;whiteSpace=wrap;connectable=0;strokeColor=inherit;overflow=hidden;fillColor=none;top=0;left=0;bottom=0;right=0;pointerEvents=1;fontSize=13;" parent="3SDEc3MKjUo-QjRz-hxS-81" vertex="1">
          <mxGeometry width="27" height="20" as="geometry">
            <mxRectangle width="27" height="20" as="alternateBounds" />
          </mxGeometry>
        </mxCell>
        <mxCell id="3SDEc3MKjUo-QjRz-hxS-82" value="CC:SS:PP&amp;nbsp;↓" style="shape=partialRectangle;html=1;whiteSpace=wrap;connectable=0;strokeColor=inherit;overflow=hidden;fillColor=none;top=0;left=0;bottom=0;right=0;pointerEvents=1;fontSize=13;" parent="3SDEc3MKjUo-QjRz-hxS-81" vertex="1">
          <mxGeometry x="27" width="257" height="20" as="geometry">
            <mxRectangle width="257" height="20" as="alternateBounds" />
          </mxGeometry>
        </mxCell>
        <mxCell id="3SDEc3MKjUo-QjRz-hxS-87" value="Description" style="shape=partialRectangle;html=1;whiteSpace=wrap;connectable=0;strokeColor=inherit;overflow=hidden;fillColor=none;top=0;left=0;bottom=0;right=0;pointerEvents=1;fontSize=13;" parent="3SDEc3MKjUo-QjRz-hxS-81" vertex="1">
          <mxGeometry x="284" width="224" height="20" as="geometry">
            <mxRectangle width="224" height="20" as="alternateBounds" />
          </mxGeometry>
        </mxCell>
        <mxCell id="3SDEc3MKjUo-QjRz-hxS-151" value="Port" style="shape=partialRectangle;html=1;whiteSpace=wrap;connectable=0;strokeColor=inherit;overflow=hidden;fillColor=none;top=0;left=0;bottom=0;right=0;pointerEvents=1;fontSize=13;" parent="3SDEc3MKjUo-QjRz-hxS-81" vertex="1">
          <mxGeometry x="508" width="223" height="20" as="geometry">
            <mxRectangle width="223" height="20" as="alternateBounds" />
          </mxGeometry>
        </mxCell>
        <mxCell id="3SDEc3MKjUo-QjRz-hxS-88" value="Status" style="shape=partialRectangle;html=1;whiteSpace=wrap;connectable=0;strokeColor=inherit;overflow=hidden;fillColor=none;top=0;left=0;bottom=0;right=0;pointerEvents=1;fontSize=13;" parent="3SDEc3MKjUo-QjRz-hxS-81" vertex="1">
          <mxGeometry x="731" width="59" height="20" as="geometry">
            <mxRectangle width="59" height="20" as="alternateBounds" />
          </mxGeometry>
        </mxCell>
        <mxCell id="3SDEc3MKjUo-QjRz-hxS-90" value="" style="shape=tableRow;horizontal=0;startSize=0;swimlaneHead=0;swimlaneBody=0;strokeColor=inherit;top=0;left=0;bottom=0;right=0;collapsible=0;dropTarget=0;fillColor=none;points=[[0,0.5],[1,0.5]];portConstraint=eastwest;fontSize=13;" parent="3SDEc3MKjUo-QjRz-hxS-80" vertex="1">
          <mxGeometry y="50" width="790" height="20" as="geometry" />
        </mxCell>
        <mxCell id="3SDEc3MKjUo-QjRz-hxS-146" style="shape=partialRectangle;html=1;whiteSpace=wrap;connectable=0;strokeColor=inherit;overflow=hidden;fillColor=none;top=0;left=0;bottom=0;right=0;pointerEvents=1;fontSize=13;" parent="3SDEc3MKjUo-QjRz-hxS-90" vertex="1">
          <mxGeometry width="27" height="20" as="geometry">
            <mxRectangle width="27" height="20" as="alternateBounds" />
          </mxGeometry>
        </mxCell>
        <mxCell id="3SDEc3MKjUo-QjRz-hxS-91" value="" style="shape=partialRectangle;html=1;whiteSpace=wrap;connectable=0;strokeColor=inherit;overflow=hidden;fillColor=none;top=0;left=0;bottom=0;right=0;pointerEvents=1;fontSize=13;" parent="3SDEc3MKjUo-QjRz-hxS-90" vertex="1">
          <mxGeometry x="27" width="257" height="20" as="geometry">
            <mxRectangle width="257" height="20" as="alternateBounds" />
          </mxGeometry>
        </mxCell>
        <mxCell id="3SDEc3MKjUo-QjRz-hxS-96" style="shape=partialRectangle;html=1;whiteSpace=wrap;connectable=0;strokeColor=inherit;overflow=hidden;fillColor=none;top=0;left=0;bottom=0;right=0;pointerEvents=1;fontSize=13;" parent="3SDEc3MKjUo-QjRz-hxS-90" vertex="1">
          <mxGeometry x="284" width="224" height="20" as="geometry">
            <mxRectangle width="224" height="20" as="alternateBounds" />
          </mxGeometry>
        </mxCell>
        <mxCell id="3SDEc3MKjUo-QjRz-hxS-152" style="shape=partialRectangle;html=1;whiteSpace=wrap;connectable=0;strokeColor=inherit;overflow=hidden;fillColor=none;top=0;left=0;bottom=0;right=0;pointerEvents=1;fontSize=13;" parent="3SDEc3MKjUo-QjRz-hxS-90" vertex="1">
          <mxGeometry x="508" width="223" height="20" as="geometry">
            <mxRectangle width="223" height="20" as="alternateBounds" />
          </mxGeometry>
        </mxCell>
        <mxCell id="3SDEc3MKjUo-QjRz-hxS-97" style="shape=partialRectangle;html=1;whiteSpace=wrap;connectable=0;strokeColor=inherit;overflow=hidden;fillColor=none;top=0;left=0;bottom=0;right=0;pointerEvents=1;fontSize=13;" parent="3SDEc3MKjUo-QjRz-hxS-90" vertex="1">
          <mxGeometry x="731" width="59" height="20" as="geometry">
            <mxRectangle width="59" height="20" as="alternateBounds" />
          </mxGeometry>
        </mxCell>
        <mxCell id="3SDEc3MKjUo-QjRz-hxS-99" value="" style="shape=tableRow;horizontal=0;startSize=0;swimlaneHead=0;swimlaneBody=0;strokeColor=inherit;top=0;left=0;bottom=0;right=0;collapsible=0;dropTarget=0;fillColor=none;points=[[0,0.5],[1,0.5]];portConstraint=eastwest;fontSize=13;" parent="3SDEc3MKjUo-QjRz-hxS-80" vertex="1">
          <mxGeometry y="70" width="790" height="20" as="geometry" />
        </mxCell>
        <mxCell id="3SDEc3MKjUo-QjRz-hxS-147" style="shape=partialRectangle;html=1;whiteSpace=wrap;connectable=0;strokeColor=inherit;overflow=hidden;fillColor=none;top=0;left=0;bottom=0;right=0;pointerEvents=1;fontSize=13;" parent="3SDEc3MKjUo-QjRz-hxS-99" vertex="1">
          <mxGeometry width="27" height="20" as="geometry">
            <mxRectangle width="27" height="20" as="alternateBounds" />
          </mxGeometry>
        </mxCell>
        <mxCell id="3SDEc3MKjUo-QjRz-hxS-100" value="" style="shape=partialRectangle;html=1;whiteSpace=wrap;connectable=0;strokeColor=inherit;overflow=hidden;fillColor=none;top=0;left=0;bottom=0;right=0;pointerEvents=1;fontSize=13;" parent="3SDEc3MKjUo-QjRz-hxS-99" vertex="1">
          <mxGeometry x="27" width="257" height="20" as="geometry">
            <mxRectangle width="257" height="20" as="alternateBounds" />
          </mxGeometry>
        </mxCell>
        <mxCell id="3SDEc3MKjUo-QjRz-hxS-105" style="shape=partialRectangle;html=1;whiteSpace=wrap;connectable=0;strokeColor=inherit;overflow=hidden;fillColor=none;top=0;left=0;bottom=0;right=0;pointerEvents=1;fontSize=13;" parent="3SDEc3MKjUo-QjRz-hxS-99" vertex="1">
          <mxGeometry x="284" width="224" height="20" as="geometry">
            <mxRectangle width="224" height="20" as="alternateBounds" />
          </mxGeometry>
        </mxCell>
        <mxCell id="3SDEc3MKjUo-QjRz-hxS-153" style="shape=partialRectangle;html=1;whiteSpace=wrap;connectable=0;strokeColor=inherit;overflow=hidden;fillColor=none;top=0;left=0;bottom=0;right=0;pointerEvents=1;fontSize=13;" parent="3SDEc3MKjUo-QjRz-hxS-99" vertex="1">
          <mxGeometry x="508" width="223" height="20" as="geometry">
            <mxRectangle width="223" height="20" as="alternateBounds" />
          </mxGeometry>
        </mxCell>
        <mxCell id="3SDEc3MKjUo-QjRz-hxS-106" style="shape=partialRectangle;html=1;whiteSpace=wrap;connectable=0;strokeColor=inherit;overflow=hidden;fillColor=none;top=0;left=0;bottom=0;right=0;pointerEvents=1;fontSize=13;" parent="3SDEc3MKjUo-QjRz-hxS-99" vertex="1">
          <mxGeometry x="731" width="59" height="20" as="geometry">
            <mxRectangle width="59" height="20" as="alternateBounds" />
          </mxGeometry>
        </mxCell>
        <mxCell id="3SDEc3MKjUo-QjRz-hxS-108" value="Маски PID:VID" style="shape=table;startSize=30;container=1;collapsible=0;childLayout=tableLayout;strokeColor=#6c8ebf;fontSize=13;fillColor=#dae8fc;" parent="1" vertex="1">
          <mxGeometry x="10" y="630" width="790" height="90" as="geometry" />
        </mxCell>
        <mxCell id="3SDEc3MKjUo-QjRz-hxS-109" value="" style="shape=tableRow;horizontal=0;startSize=0;swimlaneHead=0;swimlaneBody=0;strokeColor=inherit;top=0;left=0;bottom=0;right=0;collapsible=0;dropTarget=0;fillColor=none;points=[[0,0.5],[1,0.5]];portConstraint=eastwest;fontSize=13;" parent="3SDEc3MKjUo-QjRz-hxS-108" vertex="1">
          <mxGeometry y="30" width="790" height="20" as="geometry" />
        </mxCell>
        <mxCell id="3SDEc3MKjUo-QjRz-hxS-148" value="№" style="shape=partialRectangle;html=1;whiteSpace=wrap;connectable=0;strokeColor=inherit;overflow=hidden;fillColor=none;top=0;left=0;bottom=0;right=0;pointerEvents=1;fontSize=13;" parent="3SDEc3MKjUo-QjRz-hxS-109" vertex="1">
          <mxGeometry width="36" height="20" as="geometry">
            <mxRectangle width="36" height="20" as="alternateBounds" />
          </mxGeometry>
        </mxCell>
        <mxCell id="3SDEc3MKjUo-QjRz-hxS-111" value="VID" style="shape=partialRectangle;html=1;whiteSpace=wrap;connectable=0;strokeColor=inherit;overflow=hidden;fillColor=none;top=0;left=0;bottom=0;right=0;pointerEvents=1;fontSize=13;" parent="3SDEc3MKjUo-QjRz-hxS-109" vertex="1">
          <mxGeometry x="36" width="189" height="20" as="geometry">
            <mxRectangle width="189" height="20" as="alternateBounds" />
          </mxGeometry>
        </mxCell>
        <mxCell id="3SDEc3MKjUo-QjRz-hxS-112" value="Vendor" style="shape=partialRectangle;html=1;whiteSpace=wrap;connectable=0;strokeColor=inherit;overflow=hidden;fillColor=none;top=0;left=0;bottom=0;right=0;pointerEvents=1;fontSize=13;" parent="3SDEc3MKjUo-QjRz-hxS-109" vertex="1">
          <mxGeometry x="225" width="112" height="20" as="geometry">
            <mxRectangle width="112" height="20" as="alternateBounds" />
          </mxGeometry>
        </mxCell>
        <mxCell id="3SDEc3MKjUo-QjRz-hxS-113" value="PID" style="shape=partialRectangle;html=1;whiteSpace=wrap;connectable=0;strokeColor=inherit;overflow=hidden;fillColor=none;top=0;left=0;bottom=0;right=0;pointerEvents=1;fontSize=13;" parent="3SDEc3MKjUo-QjRz-hxS-109" vertex="1">
          <mxGeometry x="337" width="114" height="20" as="geometry">
            <mxRectangle width="114" height="20" as="alternateBounds" />
          </mxGeometry>
        </mxCell>
        <mxCell id="3SDEc3MKjUo-QjRz-hxS-114" value="Product" style="shape=partialRectangle;html=1;whiteSpace=wrap;connectable=0;strokeColor=inherit;overflow=hidden;fillColor=none;top=0;left=0;bottom=0;right=0;pointerEvents=1;fontSize=13;" parent="3SDEc3MKjUo-QjRz-hxS-109" vertex="1">
          <mxGeometry x="451" width="113" height="20" as="geometry">
            <mxRectangle width="113" height="20" as="alternateBounds" />
          </mxGeometry>
        </mxCell>
        <mxCell id="3SDEc3MKjUo-QjRz-hxS-154" value="Port" style="shape=partialRectangle;html=1;whiteSpace=wrap;connectable=0;strokeColor=inherit;overflow=hidden;fillColor=none;top=0;left=0;bottom=0;right=0;pointerEvents=1;fontSize=13;" parent="3SDEc3MKjUo-QjRz-hxS-109" vertex="1">
          <mxGeometry x="564" width="113" height="20" as="geometry">
            <mxRectangle width="113" height="20" as="alternateBounds" />
          </mxGeometry>
        </mxCell>
        <mxCell id="3SDEc3MKjUo-QjRz-hxS-117" value="Status" style="shape=partialRectangle;html=1;whiteSpace=wrap;connectable=0;strokeColor=inherit;overflow=hidden;fillColor=none;top=0;left=0;bottom=0;right=0;pointerEvents=1;fontSize=13;" parent="3SDEc3MKjUo-QjRz-hxS-109" vertex="1">
          <mxGeometry x="677" width="113" height="20" as="geometry">
            <mxRectangle width="113" height="20" as="alternateBounds" />
          </mxGeometry>
        </mxCell>
        <mxCell id="3SDEc3MKjUo-QjRz-hxS-118" value="" style="shape=tableRow;horizontal=0;startSize=0;swimlaneHead=0;swimlaneBody=0;strokeColor=inherit;top=0;left=0;bottom=0;right=0;collapsible=0;dropTarget=0;fillColor=none;points=[[0,0.5],[1,0.5]];portConstraint=eastwest;fontSize=13;" parent="3SDEc3MKjUo-QjRz-hxS-108" vertex="1">
          <mxGeometry y="50" width="790" height="20" as="geometry" />
        </mxCell>
        <mxCell id="3SDEc3MKjUo-QjRz-hxS-149" style="shape=partialRectangle;html=1;whiteSpace=wrap;connectable=0;strokeColor=inherit;overflow=hidden;fillColor=none;top=0;left=0;bottom=0;right=0;pointerEvents=1;fontSize=13;" parent="3SDEc3MKjUo-QjRz-hxS-118" vertex="1">
          <mxGeometry width="36" height="20" as="geometry">
            <mxRectangle width="36" height="20" as="alternateBounds" />
          </mxGeometry>
        </mxCell>
        <mxCell id="3SDEc3MKjUo-QjRz-hxS-120" value="" style="shape=partialRectangle;html=1;whiteSpace=wrap;connectable=0;strokeColor=inherit;overflow=hidden;fillColor=none;top=0;left=0;bottom=0;right=0;pointerEvents=1;fontSize=13;" parent="3SDEc3MKjUo-QjRz-hxS-118" vertex="1">
          <mxGeometry x="36" width="189" height="20" as="geometry">
            <mxRectangle width="189" height="20" as="alternateBounds" />
          </mxGeometry>
        </mxCell>
        <mxCell id="3SDEc3MKjUo-QjRz-hxS-121" style="shape=partialRectangle;html=1;whiteSpace=wrap;connectable=0;strokeColor=inherit;overflow=hidden;fillColor=none;top=0;left=0;bottom=0;right=0;pointerEvents=1;fontSize=13;" parent="3SDEc3MKjUo-QjRz-hxS-118" vertex="1">
          <mxGeometry x="225" width="112" height="20" as="geometry">
            <mxRectangle width="112" height="20" as="alternateBounds" />
          </mxGeometry>
        </mxCell>
        <mxCell id="3SDEc3MKjUo-QjRz-hxS-122" value="" style="shape=partialRectangle;html=1;whiteSpace=wrap;connectable=0;strokeColor=inherit;overflow=hidden;fillColor=none;top=0;left=0;bottom=0;right=0;pointerEvents=1;fontSize=13;" parent="3SDEc3MKjUo-QjRz-hxS-118" vertex="1">
          <mxGeometry x="337" width="114" height="20" as="geometry">
            <mxRectangle width="114" height="20" as="alternateBounds" />
          </mxGeometry>
        </mxCell>
        <mxCell id="3SDEc3MKjUo-QjRz-hxS-123" style="shape=partialRectangle;html=1;whiteSpace=wrap;connectable=0;strokeColor=inherit;overflow=hidden;fillColor=none;top=0;left=0;bottom=0;right=0;pointerEvents=1;fontSize=13;" parent="3SDEc3MKjUo-QjRz-hxS-118" vertex="1">
          <mxGeometry x="451" width="113" height="20" as="geometry">
            <mxRectangle width="113" height="20" as="alternateBounds" />
          </mxGeometry>
        </mxCell>
        <mxCell id="3SDEc3MKjUo-QjRz-hxS-155" style="shape=partialRectangle;html=1;whiteSpace=wrap;connectable=0;strokeColor=inherit;overflow=hidden;fillColor=none;top=0;left=0;bottom=0;right=0;pointerEvents=1;fontSize=13;" parent="3SDEc3MKjUo-QjRz-hxS-118" vertex="1">
          <mxGeometry x="564" width="113" height="20" as="geometry">
            <mxRectangle width="113" height="20" as="alternateBounds" />
          </mxGeometry>
        </mxCell>
        <mxCell id="3SDEc3MKjUo-QjRz-hxS-126" style="shape=partialRectangle;html=1;whiteSpace=wrap;connectable=0;strokeColor=inherit;overflow=hidden;fillColor=none;top=0;left=0;bottom=0;right=0;pointerEvents=1;fontSize=13;" parent="3SDEc3MKjUo-QjRz-hxS-118" vertex="1">
          <mxGeometry x="677" width="113" height="20" as="geometry">
            <mxRectangle width="113" height="20" as="alternateBounds" />
          </mxGeometry>
        </mxCell>
        <mxCell id="3SDEc3MKjUo-QjRz-hxS-127" value="" style="shape=tableRow;horizontal=0;startSize=0;swimlaneHead=0;swimlaneBody=0;strokeColor=inherit;top=0;left=0;bottom=0;right=0;collapsible=0;dropTarget=0;fillColor=none;points=[[0,0.5],[1,0.5]];portConstraint=eastwest;fontSize=13;" parent="3SDEc3MKjUo-QjRz-hxS-108" vertex="1">
          <mxGeometry y="70" width="790" height="20" as="geometry" />
        </mxCell>
        <mxCell id="3SDEc3MKjUo-QjRz-hxS-150" style="shape=partialRectangle;html=1;whiteSpace=wrap;connectable=0;strokeColor=inherit;overflow=hidden;fillColor=none;top=0;left=0;bottom=0;right=0;pointerEvents=1;fontSize=13;" parent="3SDEc3MKjUo-QjRz-hxS-127" vertex="1">
          <mxGeometry width="36" height="20" as="geometry">
            <mxRectangle width="36" height="20" as="alternateBounds" />
          </mxGeometry>
        </mxCell>
        <mxCell id="3SDEc3MKjUo-QjRz-hxS-129" value="" style="shape=partialRectangle;html=1;whiteSpace=wrap;connectable=0;strokeColor=inherit;overflow=hidden;fillColor=none;top=0;left=0;bottom=0;right=0;pointerEvents=1;fontSize=13;" parent="3SDEc3MKjUo-QjRz-hxS-127" vertex="1">
          <mxGeometry x="36" width="189" height="20" as="geometry">
            <mxRectangle width="189" height="20" as="alternateBounds" />
          </mxGeometry>
        </mxCell>
        <mxCell id="3SDEc3MKjUo-QjRz-hxS-130" style="shape=partialRectangle;html=1;whiteSpace=wrap;connectable=0;strokeColor=inherit;overflow=hidden;fillColor=none;top=0;left=0;bottom=0;right=0;pointerEvents=1;fontSize=13;" parent="3SDEc3MKjUo-QjRz-hxS-127" vertex="1">
          <mxGeometry x="225" width="112" height="20" as="geometry">
            <mxRectangle width="112" height="20" as="alternateBounds" />
          </mxGeometry>
        </mxCell>
        <mxCell id="3SDEc3MKjUo-QjRz-hxS-131" value="" style="shape=partialRectangle;html=1;whiteSpace=wrap;connectable=0;strokeColor=inherit;overflow=hidden;fillColor=none;top=0;left=0;bottom=0;right=0;pointerEvents=1;fontSize=13;" parent="3SDEc3MKjUo-QjRz-hxS-127" vertex="1">
          <mxGeometry x="337" width="114" height="20" as="geometry">
            <mxRectangle width="114" height="20" as="alternateBounds" />
          </mxGeometry>
        </mxCell>
        <mxCell id="3SDEc3MKjUo-QjRz-hxS-132" style="shape=partialRectangle;html=1;whiteSpace=wrap;connectable=0;strokeColor=inherit;overflow=hidden;fillColor=none;top=0;left=0;bottom=0;right=0;pointerEvents=1;fontSize=13;" parent="3SDEc3MKjUo-QjRz-hxS-127" vertex="1">
          <mxGeometry x="451" width="113" height="20" as="geometry">
            <mxRectangle width="113" height="20" as="alternateBounds" />
          </mxGeometry>
        </mxCell>
        <mxCell id="3SDEc3MKjUo-QjRz-hxS-156" style="shape=partialRectangle;html=1;whiteSpace=wrap;connectable=0;strokeColor=inherit;overflow=hidden;fillColor=none;top=0;left=0;bottom=0;right=0;pointerEvents=1;fontSize=13;" parent="3SDEc3MKjUo-QjRz-hxS-127" vertex="1">
          <mxGeometry x="564" width="113" height="20" as="geometry">
            <mxRectangle width="113" height="20" as="alternateBounds" />
          </mxGeometry>
        </mxCell>
        <mxCell id="3SDEc3MKjUo-QjRz-hxS-135" style="shape=partialRectangle;html=1;whiteSpace=wrap;connectable=0;strokeColor=inherit;overflow=hidden;fillColor=none;top=0;left=0;bottom=0;right=0;pointerEvents=1;fontSize=13;" parent="3SDEc3MKjUo-QjRz-hxS-127" vertex="1">
          <mxGeometry x="677" width="113" height="20" as="geometry">
            <mxRectangle width="113" height="20" as="alternateBounds" />
          </mxGeometry>
        </mxCell>
        <mxCell id="3SDEc3MKjUo-QjRz-hxS-136" value="Загрузить из файла" style="rounded=1;whiteSpace=wrap;html=1;fillColor=#dae8fc;strokeColor=#6c8ebf;fontSize=13;" parent="1" vertex="1">
          <mxGeometry x="380" y="570" width="140" height="25" as="geometry" />
        </mxCell>
        <mxCell id="3SDEc3MKjUo-QjRz-hxS-137" value="Удалить" style="rounded=1;whiteSpace=wrap;html=1;fillColor=#dae8fc;strokeColor=#6c8ebf;fontSize=13;" parent="1" vertex="1">
          <mxGeometry x="670" y="570" width="130" height="25" as="geometry" />
        </mxCell>
        <mxCell id="3SDEc3MKjUo-QjRz-hxS-138" value="Добавить" style="rounded=1;whiteSpace=wrap;html=1;fillColor=#dae8fc;strokeColor=#6c8ebf;fontSize=13;" parent="1" vertex="1">
          <mxGeometry x="530" y="570" width="130" height="25" as="geometry" />
        </mxCell>
        <mxCell id="3SDEc3MKjUo-QjRz-hxS-139" value="Загрузить из файла" style="rounded=1;whiteSpace=wrap;html=1;fillColor=#dae8fc;strokeColor=#6c8ebf;fontSize=13;" parent="1" vertex="1">
          <mxGeometry x="380" y="730" width="140" height="25" as="geometry" />
        </mxCell>
        <mxCell id="3SDEc3MKjUo-QjRz-hxS-140" value="Удалить" style="rounded=1;whiteSpace=wrap;html=1;fillColor=#dae8fc;strokeColor=#6c8ebf;fontSize=13;" parent="1" vertex="1">
          <mxGeometry x="670" y="730" width="130" height="25" as="geometry" />
        </mxCell>
        <mxCell id="3SDEc3MKjUo-QjRz-hxS-141" value="Добавить" style="rounded=1;whiteSpace=wrap;html=1;fillColor=#dae8fc;strokeColor=#6c8ebf;fontSize=13;" parent="1" vertex="1">
          <mxGeometry x="530" y="730" width="130" height="25" as="geometry" />
        </mxCell>
        <mxCell id="3SDEc3MKjUo-QjRz-hxS-160" value="Status: Allow: Block : Reject" style="text;html=1;align=center;verticalAlign=middle;resizable=0;points=[];autosize=1;strokeColor=none;fillColor=none;fontSize=13;fontFamily=Helvetica;fontColor=default;" parent="1" vertex="1">
          <mxGeometry x="820" y="510" width="180" height="30" as="geometry" />
        </mxCell>
        <mxCell id="3SDEc3MKjUo-QjRz-hxS-164" value="" style="group;" parent="1" vertex="1" connectable="0">
          <mxGeometry x="40" y="420" width="440" height="52.5" as="geometry" />
        </mxCell>
        <mxCell id="3SDEc3MKjUo-QjRz-hxS-165" value="Чёрный список (разрешить всё с исключениями по списку)" style="text;html=1;align=left;verticalAlign=top;resizable=0;points=[];autosize=1;strokeColor=none;fillColor=none;spacing=2;" parent="3SDEc3MKjUo-QjRz-hxS-164" vertex="1">
          <mxGeometry x="30" width="360" height="30" as="geometry" />
        </mxCell>
        <mxCell id="3SDEc3MKjUo-QjRz-hxS-166" value="" style="ellipse;whiteSpace=wrap;html=1;aspect=fixed;fontSize=13;" parent="3SDEc3MKjUo-QjRz-hxS-164" vertex="1">
          <mxGeometry y="7.5" width="15" height="15" as="geometry" />
        </mxCell>
        <mxCell id="3SDEc3MKjUo-QjRz-hxS-161" value="" style="group;" parent="3SDEc3MKjUo-QjRz-hxS-164" vertex="1" connectable="0">
          <mxGeometry y="22.5" width="410" height="30" as="geometry" />
        </mxCell>
        <mxCell id="3SDEc3MKjUo-QjRz-hxS-162" value="Белый список (блокировать всё с исключениями по списку)" style="text;html=1;align=left;verticalAlign=top;resizable=0;points=[];autosize=1;strokeColor=none;fillColor=none;spacing=2;" parent="3SDEc3MKjUo-QjRz-hxS-161" vertex="1">
          <mxGeometry x="30" width="360" height="30" as="geometry" />
        </mxCell>
        <mxCell id="3SDEc3MKjUo-QjRz-hxS-163" value="" style="ellipse;whiteSpace=wrap;html=1;aspect=fixed;fontSize=13;" parent="3SDEc3MKjUo-QjRz-hxS-161" vertex="1">
          <mxGeometry y="7.5" width="15" height="15" as="geometry" />
        </mxCell>
        <mxCell id="3SDEc3MKjUo-QjRz-hxS-167" value="Привязка мотирования USB дисков к UID/GID" style="shape=table;startSize=30;container=1;collapsible=0;childLayout=tableLayout;strokeColor=#6c8ebf;fontSize=13;fillColor=#dae8fc;" parent="1" vertex="1">
          <mxGeometry x="10" y="870" width="790" height="90" as="geometry" />
        </mxCell>
        <mxCell id="3SDEc3MKjUo-QjRz-hxS-168" value="" style="shape=tableRow;horizontal=0;startSize=0;swimlaneHead=0;swimlaneBody=0;strokeColor=inherit;top=0;left=0;bottom=0;right=0;collapsible=0;dropTarget=0;fillColor=none;points=[[0,0.5],[1,0.5]];portConstraint=eastwest;fontSize=13;" parent="3SDEc3MKjUo-QjRz-hxS-167" vertex="1">
          <mxGeometry y="30" width="790" height="20" as="geometry" />
        </mxCell>
        <mxCell id="3SDEc3MKjUo-QjRz-hxS-169" value="№" style="shape=partialRectangle;html=1;whiteSpace=wrap;connectable=0;strokeColor=inherit;overflow=hidden;fillColor=none;top=0;left=0;bottom=0;right=0;pointerEvents=1;fontSize=13;" parent="3SDEc3MKjUo-QjRz-hxS-168" vertex="1">
          <mxGeometry width="36" height="20" as="geometry">
            <mxRectangle width="36" height="20" as="alternateBounds" />
          </mxGeometry>
        </mxCell>
        <mxCell id="3SDEc3MKjUo-QjRz-hxS-170" value="Hash" style="shape=partialRectangle;html=1;whiteSpace=wrap;connectable=0;strokeColor=inherit;overflow=hidden;fillColor=none;top=0;left=0;bottom=0;right=0;pointerEvents=1;fontSize=13;" parent="3SDEc3MKjUo-QjRz-hxS-168" vertex="1">
          <mxGeometry x="36" width="189" height="20" as="geometry">
            <mxRectangle width="189" height="20" as="alternateBounds" />
          </mxGeometry>
        </mxCell>
        <mxCell id="3SDEc3MKjUo-QjRz-hxS-173" value="UID" style="shape=partialRectangle;html=1;whiteSpace=wrap;connectable=0;strokeColor=inherit;overflow=hidden;fillColor=none;top=0;left=0;bottom=0;right=0;pointerEvents=1;fontSize=13;" parent="3SDEc3MKjUo-QjRz-hxS-168" vertex="1">
          <mxGeometry x="225" width="113" height="20" as="geometry">
            <mxRectangle width="113" height="20" as="alternateBounds" />
          </mxGeometry>
        </mxCell>
        <mxCell id="3SDEc3MKjUo-QjRz-hxS-195" value="User Name" style="shape=partialRectangle;html=1;whiteSpace=wrap;connectable=0;strokeColor=inherit;overflow=hidden;fillColor=none;top=0;left=0;bottom=0;right=0;pointerEvents=1;fontSize=13;" parent="3SDEc3MKjUo-QjRz-hxS-168" vertex="1">
          <mxGeometry x="338" width="114" height="20" as="geometry">
            <mxRectangle width="114" height="20" as="alternateBounds" />
          </mxGeometry>
        </mxCell>
        <mxCell id="3SDEc3MKjUo-QjRz-hxS-174" value="GID" style="shape=partialRectangle;html=1;whiteSpace=wrap;connectable=0;strokeColor=inherit;overflow=hidden;fillColor=none;top=0;left=0;bottom=0;right=0;pointerEvents=1;fontSize=13;" parent="3SDEc3MKjUo-QjRz-hxS-168" vertex="1">
          <mxGeometry x="452" width="112" height="20" as="geometry">
            <mxRectangle width="112" height="20" as="alternateBounds" />
          </mxGeometry>
        </mxCell>
        <mxCell id="3SDEc3MKjUo-QjRz-hxS-192" value="Group Name" style="shape=partialRectangle;html=1;whiteSpace=wrap;connectable=0;strokeColor=inherit;overflow=hidden;fillColor=none;top=0;left=0;bottom=0;right=0;pointerEvents=1;fontSize=13;" parent="3SDEc3MKjUo-QjRz-hxS-168" vertex="1">
          <mxGeometry x="564" width="113" height="20" as="geometry">
            <mxRectangle width="113" height="20" as="alternateBounds" />
          </mxGeometry>
        </mxCell>
        <mxCell id="3SDEc3MKjUo-QjRz-hxS-175" value="Status" style="shape=partialRectangle;html=1;whiteSpace=wrap;connectable=0;strokeColor=inherit;overflow=hidden;fillColor=none;top=0;left=0;bottom=0;right=0;pointerEvents=1;fontSize=13;" parent="3SDEc3MKjUo-QjRz-hxS-168" vertex="1">
          <mxGeometry x="677" width="113" height="20" as="geometry">
            <mxRectangle width="113" height="20" as="alternateBounds" />
          </mxGeometry>
        </mxCell>
        <mxCell id="3SDEc3MKjUo-QjRz-hxS-176" value="" style="shape=tableRow;horizontal=0;startSize=0;swimlaneHead=0;swimlaneBody=0;strokeColor=inherit;top=0;left=0;bottom=0;right=0;collapsible=0;dropTarget=0;fillColor=none;points=[[0,0.5],[1,0.5]];portConstraint=eastwest;fontSize=13;" parent="3SDEc3MKjUo-QjRz-hxS-167" vertex="1">
          <mxGeometry y="50" width="790" height="20" as="geometry" />
        </mxCell>
        <mxCell id="3SDEc3MKjUo-QjRz-hxS-177" style="shape=partialRectangle;html=1;whiteSpace=wrap;connectable=0;strokeColor=inherit;overflow=hidden;fillColor=none;top=0;left=0;bottom=0;right=0;pointerEvents=1;fontSize=13;" parent="3SDEc3MKjUo-QjRz-hxS-176" vertex="1">
          <mxGeometry width="36" height="20" as="geometry">
            <mxRectangle width="36" height="20" as="alternateBounds" />
          </mxGeometry>
        </mxCell>
        <mxCell id="3SDEc3MKjUo-QjRz-hxS-178" value="" style="shape=partialRectangle;html=1;whiteSpace=wrap;connectable=0;strokeColor=inherit;overflow=hidden;fillColor=none;top=0;left=0;bottom=0;right=0;pointerEvents=1;fontSize=13;" parent="3SDEc3MKjUo-QjRz-hxS-176" vertex="1">
          <mxGeometry x="36" width="189" height="20" as="geometry">
            <mxRectangle width="189" height="20" as="alternateBounds" />
          </mxGeometry>
        </mxCell>
        <mxCell id="3SDEc3MKjUo-QjRz-hxS-181" style="shape=partialRectangle;html=1;whiteSpace=wrap;connectable=0;strokeColor=inherit;overflow=hidden;fillColor=none;top=0;left=0;bottom=0;right=0;pointerEvents=1;fontSize=13;" parent="3SDEc3MKjUo-QjRz-hxS-176" vertex="1">
          <mxGeometry x="225" width="113" height="20" as="geometry">
            <mxRectangle width="113" height="20" as="alternateBounds" />
          </mxGeometry>
        </mxCell>
        <mxCell id="3SDEc3MKjUo-QjRz-hxS-196" style="shape=partialRectangle;html=1;whiteSpace=wrap;connectable=0;strokeColor=inherit;overflow=hidden;fillColor=none;top=0;left=0;bottom=0;right=0;pointerEvents=1;fontSize=13;" parent="3SDEc3MKjUo-QjRz-hxS-176" vertex="1">
          <mxGeometry x="338" width="114" height="20" as="geometry">
            <mxRectangle width="114" height="20" as="alternateBounds" />
          </mxGeometry>
        </mxCell>
        <mxCell id="3SDEc3MKjUo-QjRz-hxS-182" style="shape=partialRectangle;html=1;whiteSpace=wrap;connectable=0;strokeColor=inherit;overflow=hidden;fillColor=none;top=0;left=0;bottom=0;right=0;pointerEvents=1;fontSize=13;" parent="3SDEc3MKjUo-QjRz-hxS-176" vertex="1">
          <mxGeometry x="452" width="112" height="20" as="geometry">
            <mxRectangle width="112" height="20" as="alternateBounds" />
          </mxGeometry>
        </mxCell>
        <mxCell id="3SDEc3MKjUo-QjRz-hxS-193" style="shape=partialRectangle;html=1;whiteSpace=wrap;connectable=0;strokeColor=inherit;overflow=hidden;fillColor=none;top=0;left=0;bottom=0;right=0;pointerEvents=1;fontSize=13;" parent="3SDEc3MKjUo-QjRz-hxS-176" vertex="1">
          <mxGeometry x="564" width="113" height="20" as="geometry">
            <mxRectangle width="113" height="20" as="alternateBounds" />
          </mxGeometry>
        </mxCell>
        <mxCell id="3SDEc3MKjUo-QjRz-hxS-183" style="shape=partialRectangle;html=1;whiteSpace=wrap;connectable=0;strokeColor=inherit;overflow=hidden;fillColor=none;top=0;left=0;bottom=0;right=0;pointerEvents=1;fontSize=13;" parent="3SDEc3MKjUo-QjRz-hxS-176" vertex="1">
          <mxGeometry x="677" width="113" height="20" as="geometry">
            <mxRectangle width="113" height="20" as="alternateBounds" />
          </mxGeometry>
        </mxCell>
        <mxCell id="3SDEc3MKjUo-QjRz-hxS-184" value="" style="shape=tableRow;horizontal=0;startSize=0;swimlaneHead=0;swimlaneBody=0;strokeColor=inherit;top=0;left=0;bottom=0;right=0;collapsible=0;dropTarget=0;fillColor=none;points=[[0,0.5],[1,0.5]];portConstraint=eastwest;fontSize=13;" parent="3SDEc3MKjUo-QjRz-hxS-167" vertex="1">
          <mxGeometry y="70" width="790" height="20" as="geometry" />
        </mxCell>
        <mxCell id="3SDEc3MKjUo-QjRz-hxS-185" style="shape=partialRectangle;html=1;whiteSpace=wrap;connectable=0;strokeColor=inherit;overflow=hidden;fillColor=none;top=0;left=0;bottom=0;right=0;pointerEvents=1;fontSize=13;" parent="3SDEc3MKjUo-QjRz-hxS-184" vertex="1">
          <mxGeometry width="36" height="20" as="geometry">
            <mxRectangle width="36" height="20" as="alternateBounds" />
          </mxGeometry>
        </mxCell>
        <mxCell id="3SDEc3MKjUo-QjRz-hxS-186" value="" style="shape=partialRectangle;html=1;whiteSpace=wrap;connectable=0;strokeColor=inherit;overflow=hidden;fillColor=none;top=0;left=0;bottom=0;right=0;pointerEvents=1;fontSize=13;" parent="3SDEc3MKjUo-QjRz-hxS-184" vertex="1">
          <mxGeometry x="36" width="189" height="20" as="geometry">
            <mxRectangle width="189" height="20" as="alternateBounds" />
          </mxGeometry>
        </mxCell>
        <mxCell id="3SDEc3MKjUo-QjRz-hxS-189" style="shape=partialRectangle;html=1;whiteSpace=wrap;connectable=0;strokeColor=inherit;overflow=hidden;fillColor=none;top=0;left=0;bottom=0;right=0;pointerEvents=1;fontSize=13;" parent="3SDEc3MKjUo-QjRz-hxS-184" vertex="1">
          <mxGeometry x="225" width="113" height="20" as="geometry">
            <mxRectangle width="113" height="20" as="alternateBounds" />
          </mxGeometry>
        </mxCell>
        <mxCell id="3SDEc3MKjUo-QjRz-hxS-197" style="shape=partialRectangle;html=1;whiteSpace=wrap;connectable=0;strokeColor=inherit;overflow=hidden;fillColor=none;top=0;left=0;bottom=0;right=0;pointerEvents=1;fontSize=13;" parent="3SDEc3MKjUo-QjRz-hxS-184" vertex="1">
          <mxGeometry x="338" width="114" height="20" as="geometry">
            <mxRectangle width="114" height="20" as="alternateBounds" />
          </mxGeometry>
        </mxCell>
        <mxCell id="3SDEc3MKjUo-QjRz-hxS-190" style="shape=partialRectangle;html=1;whiteSpace=wrap;connectable=0;strokeColor=inherit;overflow=hidden;fillColor=none;top=0;left=0;bottom=0;right=0;pointerEvents=1;fontSize=13;" parent="3SDEc3MKjUo-QjRz-hxS-184" vertex="1">
          <mxGeometry x="452" width="112" height="20" as="geometry">
            <mxRectangle width="112" height="20" as="alternateBounds" />
          </mxGeometry>
        </mxCell>
        <mxCell id="3SDEc3MKjUo-QjRz-hxS-194" style="shape=partialRectangle;html=1;whiteSpace=wrap;connectable=0;strokeColor=inherit;overflow=hidden;fillColor=none;top=0;left=0;bottom=0;right=0;pointerEvents=1;fontSize=13;" parent="3SDEc3MKjUo-QjRz-hxS-184" vertex="1">
          <mxGeometry x="564" width="113" height="20" as="geometry">
            <mxRectangle width="113" height="20" as="alternateBounds" />
          </mxGeometry>
        </mxCell>
        <mxCell id="3SDEc3MKjUo-QjRz-hxS-191" style="shape=partialRectangle;html=1;whiteSpace=wrap;connectable=0;strokeColor=inherit;overflow=hidden;fillColor=none;top=0;left=0;bottom=0;right=0;pointerEvents=1;fontSize=13;" parent="3SDEc3MKjUo-QjRz-hxS-184" vertex="1">
          <mxGeometry x="677" width="113" height="20" as="geometry">
            <mxRectangle width="113" height="20" as="alternateBounds" />
          </mxGeometry>
        </mxCell>
        <mxCell id="3SDEc3MKjUo-QjRz-hxS-198" value="Status: Read, Read+Write" style="text;html=1;align=center;verticalAlign=middle;resizable=0;points=[];autosize=1;strokeColor=none;fillColor=none;fontSize=13;fontFamily=Helvetica;fontColor=default;" parent="1" vertex="1">
          <mxGeometry x="820" y="900" width="170" height="30" as="geometry" />
        </mxCell>
        <mxCell id="3SDEc3MKjUo-QjRz-hxS-199" value="&lt;font style=&quot;font-size: 13px;&quot;&gt;Использовать журналирование событий&lt;/font&gt;" style="text;html=1;align=left;verticalAlign=top;resizable=0;points=[];autosize=1;strokeColor=none;fillColor=none;spacing=2;fontSize=13;" parent="1" vertex="1">
          <mxGeometry x="40" y="1030" width="270" height="30" as="geometry" />
        </mxCell>
        <mxCell id="3SDEc3MKjUo-QjRz-hxS-200" value="" style="rounded=1;whiteSpace=wrap;html=1;shadow=0;labelBackgroundColor=none;strokeWidth=1;fontFamily=Verdana;fontSize=13;align=center;" parent="1" vertex="1">
          <mxGeometry x="10" y="1035" width="20" height="20" as="geometry" />
        </mxCell>
        <mxCell id="3SDEc3MKjUo-QjRz-hxS-201" value="&lt;font style=&quot;font-size: 13px;&quot;&gt;Использовать правила монтирования&lt;/font&gt;" style="text;html=1;align=left;verticalAlign=top;resizable=0;points=[];autosize=1;strokeColor=none;fillColor=none;spacing=2;fontSize=13;" parent="1" vertex="1">
          <mxGeometry x="40" y="830" width="260" height="30" as="geometry" />
        </mxCell>
        <mxCell id="3SDEc3MKjUo-QjRz-hxS-202" value="" style="rounded=1;whiteSpace=wrap;html=1;shadow=0;labelBackgroundColor=none;strokeWidth=1;fontFamily=Verdana;fontSize=13;align=center;" parent="1" vertex="1">
          <mxGeometry x="10" y="835" width="20" height="20" as="geometry" />
        </mxCell>
        <mxCell id="3SDEc3MKjUo-QjRz-hxS-203" value="Просмотр журнала" style="rounded=1;whiteSpace=wrap;html=1;fillColor=#dae8fc;strokeColor=#6c8ebf;fontSize=13;" parent="1" vertex="1">
          <mxGeometry x="660" y="1032.5" width="140" height="25" as="geometry" />
        </mxCell>
        <mxCell id="3SDEc3MKjUo-QjRz-hxS-204" value="События для журнала по маске " style="shape=table;startSize=30;container=1;collapsible=0;childLayout=tableLayout;strokeColor=#6c8ebf;fontSize=13;fillColor=#dae8fc;" parent="1" vertex="1">
          <mxGeometry x="10" y="1080" width="790" height="90" as="geometry" />
        </mxCell>
        <mxCell id="3SDEc3MKjUo-QjRz-hxS-205" value="" style="shape=tableRow;horizontal=0;startSize=0;swimlaneHead=0;swimlaneBody=0;strokeColor=inherit;top=0;left=0;bottom=0;right=0;collapsible=0;dropTarget=0;fillColor=none;points=[[0,0.5],[1,0.5]];portConstraint=eastwest;fontSize=13;" parent="3SDEc3MKjUo-QjRz-hxS-204" vertex="1">
          <mxGeometry y="30" width="790" height="20" as="geometry" />
        </mxCell>
        <mxCell id="3SDEc3MKjUo-QjRz-hxS-206" value="№" style="shape=partialRectangle;html=1;whiteSpace=wrap;connectable=0;strokeColor=inherit;overflow=hidden;fillColor=none;top=0;left=0;bottom=0;right=0;pointerEvents=1;fontSize=13;" parent="3SDEc3MKjUo-QjRz-hxS-205" vertex="1">
          <mxGeometry width="36" height="20" as="geometry">
            <mxRectangle width="36" height="20" as="alternateBounds" />
          </mxGeometry>
        </mxCell>
        <mxCell id="3SDEc3MKjUo-QjRz-hxS-207" value="" style="shape=partialRectangle;html=1;whiteSpace=wrap;connectable=0;strokeColor=inherit;overflow=hidden;fillColor=none;top=0;left=0;bottom=0;right=0;pointerEvents=1;fontSize=13;" parent="3SDEc3MKjUo-QjRz-hxS-205" vertex="1">
          <mxGeometry x="36" width="189" height="20" as="geometry">
            <mxRectangle width="189" height="20" as="alternateBounds" />
          </mxGeometry>
        </mxCell>
        <mxCell id="3SDEc3MKjUo-QjRz-hxS-208" value="" style="shape=partialRectangle;html=1;whiteSpace=wrap;connectable=0;strokeColor=inherit;overflow=hidden;fillColor=none;top=0;left=0;bottom=0;right=0;pointerEvents=1;fontSize=13;" parent="3SDEc3MKjUo-QjRz-hxS-205" vertex="1">
          <mxGeometry x="225" width="113" height="20" as="geometry">
            <mxRectangle width="113" height="20" as="alternateBounds" />
          </mxGeometry>
        </mxCell>
        <mxCell id="3SDEc3MKjUo-QjRz-hxS-209" value="" style="shape=partialRectangle;html=1;whiteSpace=wrap;connectable=0;strokeColor=inherit;overflow=hidden;fillColor=none;top=0;left=0;bottom=0;right=0;pointerEvents=1;fontSize=13;" parent="3SDEc3MKjUo-QjRz-hxS-205" vertex="1">
          <mxGeometry x="338" width="114" height="20" as="geometry">
            <mxRectangle width="114" height="20" as="alternateBounds" />
          </mxGeometry>
        </mxCell>
        <mxCell id="3SDEc3MKjUo-QjRz-hxS-210" value="" style="shape=partialRectangle;html=1;whiteSpace=wrap;connectable=0;strokeColor=inherit;overflow=hidden;fillColor=none;top=0;left=0;bottom=0;right=0;pointerEvents=1;fontSize=13;" parent="3SDEc3MKjUo-QjRz-hxS-205" vertex="1">
          <mxGeometry x="452" width="112" height="20" as="geometry">
            <mxRectangle width="112" height="20" as="alternateBounds" />
          </mxGeometry>
        </mxCell>
        <mxCell id="3SDEc3MKjUo-QjRz-hxS-211" value="" style="shape=partialRectangle;html=1;whiteSpace=wrap;connectable=0;strokeColor=inherit;overflow=hidden;fillColor=none;top=0;left=0;bottom=0;right=0;pointerEvents=1;fontSize=13;" parent="3SDEc3MKjUo-QjRz-hxS-205" vertex="1">
          <mxGeometry x="564" width="113" height="20" as="geometry">
            <mxRectangle width="113" height="20" as="alternateBounds" />
          </mxGeometry>
        </mxCell>
        <mxCell id="3SDEc3MKjUo-QjRz-hxS-212" value="" style="shape=partialRectangle;html=1;whiteSpace=wrap;connectable=0;strokeColor=inherit;overflow=hidden;fillColor=none;top=0;left=0;bottom=0;right=0;pointerEvents=1;fontSize=13;" parent="3SDEc3MKjUo-QjRz-hxS-205" vertex="1">
          <mxGeometry x="677" width="113" height="20" as="geometry">
            <mxRectangle width="113" height="20" as="alternateBounds" />
          </mxGeometry>
        </mxCell>
        <mxCell id="3SDEc3MKjUo-QjRz-hxS-213" value="" style="shape=tableRow;horizontal=0;startSize=0;swimlaneHead=0;swimlaneBody=0;strokeColor=inherit;top=0;left=0;bottom=0;right=0;collapsible=0;dropTarget=0;fillColor=none;points=[[0,0.5],[1,0.5]];portConstraint=eastwest;fontSize=13;" parent="3SDEc3MKjUo-QjRz-hxS-204" vertex="1">
          <mxGeometry y="50" width="790" height="20" as="geometry" />
        </mxCell>
        <mxCell id="3SDEc3MKjUo-QjRz-hxS-214" style="shape=partialRectangle;html=1;whiteSpace=wrap;connectable=0;strokeColor=inherit;overflow=hidden;fillColor=none;top=0;left=0;bottom=0;right=0;pointerEvents=1;fontSize=13;" parent="3SDEc3MKjUo-QjRz-hxS-213" vertex="1">
          <mxGeometry width="36" height="20" as="geometry">
            <mxRectangle width="36" height="20" as="alternateBounds" />
          </mxGeometry>
        </mxCell>
        <mxCell id="3SDEc3MKjUo-QjRz-hxS-215" value="" style="shape=partialRectangle;html=1;whiteSpace=wrap;connectable=0;strokeColor=inherit;overflow=hidden;fillColor=none;top=0;left=0;bottom=0;right=0;pointerEvents=1;fontSize=13;" parent="3SDEc3MKjUo-QjRz-hxS-213" vertex="1">
          <mxGeometry x="36" width="189" height="20" as="geometry">
            <mxRectangle width="189" height="20" as="alternateBounds" />
          </mxGeometry>
        </mxCell>
        <mxCell id="3SDEc3MKjUo-QjRz-hxS-216" style="shape=partialRectangle;html=1;whiteSpace=wrap;connectable=0;strokeColor=inherit;overflow=hidden;fillColor=none;top=0;left=0;bottom=0;right=0;pointerEvents=1;fontSize=13;" parent="3SDEc3MKjUo-QjRz-hxS-213" vertex="1">
          <mxGeometry x="225" width="113" height="20" as="geometry">
            <mxRectangle width="113" height="20" as="alternateBounds" />
          </mxGeometry>
        </mxCell>
        <mxCell id="3SDEc3MKjUo-QjRz-hxS-217" style="shape=partialRectangle;html=1;whiteSpace=wrap;connectable=0;strokeColor=inherit;overflow=hidden;fillColor=none;top=0;left=0;bottom=0;right=0;pointerEvents=1;fontSize=13;" parent="3SDEc3MKjUo-QjRz-hxS-213" vertex="1">
          <mxGeometry x="338" width="114" height="20" as="geometry">
            <mxRectangle width="114" height="20" as="alternateBounds" />
          </mxGeometry>
        </mxCell>
        <mxCell id="3SDEc3MKjUo-QjRz-hxS-218" style="shape=partialRectangle;html=1;whiteSpace=wrap;connectable=0;strokeColor=inherit;overflow=hidden;fillColor=none;top=0;left=0;bottom=0;right=0;pointerEvents=1;fontSize=13;" parent="3SDEc3MKjUo-QjRz-hxS-213" vertex="1">
          <mxGeometry x="452" width="112" height="20" as="geometry">
            <mxRectangle width="112" height="20" as="alternateBounds" />
          </mxGeometry>
        </mxCell>
        <mxCell id="3SDEc3MKjUo-QjRz-hxS-219" style="shape=partialRectangle;html=1;whiteSpace=wrap;connectable=0;strokeColor=inherit;overflow=hidden;fillColor=none;top=0;left=0;bottom=0;right=0;pointerEvents=1;fontSize=13;" parent="3SDEc3MKjUo-QjRz-hxS-213" vertex="1">
          <mxGeometry x="564" width="113" height="20" as="geometry">
            <mxRectangle width="113" height="20" as="alternateBounds" />
          </mxGeometry>
        </mxCell>
        <mxCell id="3SDEc3MKjUo-QjRz-hxS-220" style="shape=partialRectangle;html=1;whiteSpace=wrap;connectable=0;strokeColor=inherit;overflow=hidden;fillColor=none;top=0;left=0;bottom=0;right=0;pointerEvents=1;fontSize=13;" parent="3SDEc3MKjUo-QjRz-hxS-213" vertex="1">
          <mxGeometry x="677" width="113" height="20" as="geometry">
            <mxRectangle width="113" height="20" as="alternateBounds" />
          </mxGeometry>
        </mxCell>
        <mxCell id="3SDEc3MKjUo-QjRz-hxS-221" value="" style="shape=tableRow;horizontal=0;startSize=0;swimlaneHead=0;swimlaneBody=0;strokeColor=inherit;top=0;left=0;bottom=0;right=0;collapsible=0;dropTarget=0;fillColor=none;points=[[0,0.5],[1,0.5]];portConstraint=eastwest;fontSize=13;" parent="3SDEc3MKjUo-QjRz-hxS-204" vertex="1">
          <mxGeometry y="70" width="790" height="20" as="geometry" />
        </mxCell>
        <mxCell id="3SDEc3MKjUo-QjRz-hxS-222" style="shape=partialRectangle;html=1;whiteSpace=wrap;connectable=0;strokeColor=inherit;overflow=hidden;fillColor=none;top=0;left=0;bottom=0;right=0;pointerEvents=1;fontSize=13;" parent="3SDEc3MKjUo-QjRz-hxS-221" vertex="1">
          <mxGeometry width="36" height="20" as="geometry">
            <mxRectangle width="36" height="20" as="alternateBounds" />
          </mxGeometry>
        </mxCell>
        <mxCell id="3SDEc3MKjUo-QjRz-hxS-223" value="" style="shape=partialRectangle;html=1;whiteSpace=wrap;connectable=0;strokeColor=inherit;overflow=hidden;fillColor=none;top=0;left=0;bottom=0;right=0;pointerEvents=1;fontSize=13;" parent="3SDEc3MKjUo-QjRz-hxS-221" vertex="1">
          <mxGeometry x="36" width="189" height="20" as="geometry">
            <mxRectangle width="189" height="20" as="alternateBounds" />
          </mxGeometry>
        </mxCell>
        <mxCell id="3SDEc3MKjUo-QjRz-hxS-224" style="shape=partialRectangle;html=1;whiteSpace=wrap;connectable=0;strokeColor=inherit;overflow=hidden;fillColor=none;top=0;left=0;bottom=0;right=0;pointerEvents=1;fontSize=13;" parent="3SDEc3MKjUo-QjRz-hxS-221" vertex="1">
          <mxGeometry x="225" width="113" height="20" as="geometry">
            <mxRectangle width="113" height="20" as="alternateBounds" />
          </mxGeometry>
        </mxCell>
        <mxCell id="3SDEc3MKjUo-QjRz-hxS-225" style="shape=partialRectangle;html=1;whiteSpace=wrap;connectable=0;strokeColor=inherit;overflow=hidden;fillColor=none;top=0;left=0;bottom=0;right=0;pointerEvents=1;fontSize=13;" parent="3SDEc3MKjUo-QjRz-hxS-221" vertex="1">
          <mxGeometry x="338" width="114" height="20" as="geometry">
            <mxRectangle width="114" height="20" as="alternateBounds" />
          </mxGeometry>
        </mxCell>
        <mxCell id="3SDEc3MKjUo-QjRz-hxS-226" style="shape=partialRectangle;html=1;whiteSpace=wrap;connectable=0;strokeColor=inherit;overflow=hidden;fillColor=none;top=0;left=0;bottom=0;right=0;pointerEvents=1;fontSize=13;" parent="3SDEc3MKjUo-QjRz-hxS-221" vertex="1">
          <mxGeometry x="452" width="112" height="20" as="geometry">
            <mxRectangle width="112" height="20" as="alternateBounds" />
          </mxGeometry>
        </mxCell>
        <mxCell id="3SDEc3MKjUo-QjRz-hxS-227" style="shape=partialRectangle;html=1;whiteSpace=wrap;connectable=0;strokeColor=inherit;overflow=hidden;fillColor=none;top=0;left=0;bottom=0;right=0;pointerEvents=1;fontSize=13;" parent="3SDEc3MKjUo-QjRz-hxS-221" vertex="1">
          <mxGeometry x="564" width="113" height="20" as="geometry">
            <mxRectangle width="113" height="20" as="alternateBounds" />
          </mxGeometry>
        </mxCell>
        <mxCell id="3SDEc3MKjUo-QjRz-hxS-228" style="shape=partialRectangle;html=1;whiteSpace=wrap;connectable=0;strokeColor=inherit;overflow=hidden;fillColor=none;top=0;left=0;bottom=0;right=0;pointerEvents=1;fontSize=13;" parent="3SDEc3MKjUo-QjRz-hxS-221" vertex="1">
          <mxGeometry x="677" width="113" height="20" as="geometry">
            <mxRectangle width="113" height="20" as="alternateBounds" />
          </mxGeometry>
        </mxCell>
        <mxCell id="3SDEc3MKjUo-QjRz-hxS-229" value="Просмотр журнала" style="rounded=1;whiteSpace=wrap;html=1;fillColor=#dae8fc;strokeColor=#6c8ebf;fontSize=13;" parent="1" vertex="1">
          <mxGeometry x="660" y="1190" width="140" height="25" as="geometry" />
        </mxCell>
        <mxCell id="3SDEc3MKjUo-QjRz-hxS-243" value="Уведомлять о записи...." style="text;html=1;align=left;verticalAlign=top;resizable=0;points=[];autosize=1;strokeColor=none;fillColor=none;spacing=2;fontSize=13;" parent="1" vertex="1">
          <mxGeometry x="40" y="1185" width="170" height="30" as="geometry" />
        </mxCell>
        <mxCell id="3SDEc3MKjUo-QjRz-hxS-244" value="" style="rounded=1;whiteSpace=wrap;html=1;shadow=0;labelBackgroundColor=none;strokeWidth=1;fontFamily=Verdana;fontSize=13;align=center;" parent="1" vertex="1">
          <mxGeometry x="10" y="1190" width="20" height="20" as="geometry" />
        </mxCell>
      </root>
    </mxGraphModel>
  </diagram>
</mxfile>
